<svg width="149" height="31" viewBox="0 0 149 31" fill="none" xmlns="http://www.w3.org/2000/svg">
<path fill-rule="evenodd" clip-rule="evenodd" d="M24.7717 2.92689C17.3772 0.466146 11.554 2.56233 8.59615 4.8408C0.0924347 11.3116 3.97456 26.6229 16.1756 26.6229C26.9901 26.5318 22.7382 16.5977 16.8226 12.7698C20.7971 14.1369 27.822 17.0534 27.2674 22.704C26.7128 28.628 21.4442 31.0887 15.8058 30.9976C15.4361 30.9976 14.9739 30.9976 14.6042 30.9064C10.7221 30.5419 7.30211 28.9014 4.71402 26.3495C1.84863 23.5242 0 19.5141 0 15.1395C0 8.3952 4.62159 2.65347 11.1842 0.73956C14.6042 -0.262964 20.8896 -0.809794 24.7717 2.92689Z" fill="#FCBE00"/>
<path d="M27.1747 1.83374V12.3147H26.4352C26.0655 10.2185 25.3261 8.48686 23.9396 7.21092C21.9985 5.47928 15.898 5.38815 13.8645 7.21092C10.9992 9.7628 14.3267 12.4058 16.5451 14.3197C18.9483 16.3248 21.7212 18.6944 21.4439 22.9779C21.1666 22.6133 20.7969 22.3399 20.4272 21.9754C19.7802 21.4285 18.5786 20.7906 16.9148 19.9703C14.1418 18.6032 10.9992 17.145 9.52025 14.4109C7.94891 11.5856 8.68836 8.1223 10.9992 5.93498C15.1586 1.7426 23.385 3.74766 25.1412 3.74766C26.158 3.74766 26.6201 2.56285 26.805 1.83374H27.1747Z" fill="black"/>
<path d="M27.1746 26.532V30.7244H22.2758C24.3093 29.813 26.4352 28.4459 27.1746 26.532Z" fill="black"/>
<path d="M47.7873 14.8555C47.7873 14.3998 47.6024 14.0353 47.2327 13.7619C46.863 13.4885 46.3084 13.215 45.3841 12.9416C44.4597 12.6682 43.8127 12.3948 43.2581 12.1214C41.8717 11.3923 41.1322 10.2986 41.1322 9.02267C41.1322 8.3847 41.3171 7.74673 41.6868 7.1999C42.0565 6.65306 42.6111 6.28851 43.3506 5.92395C44.09 5.65054 44.8295 5.46826 45.7538 5.46826C46.6781 5.46826 47.4176 5.65054 48.157 5.92395C48.8965 6.28851 49.4511 6.65306 49.8208 7.29103C50.1905 7.83786 50.3754 8.56697 50.3754 9.29608H47.7873C47.7873 8.74925 47.6024 8.29355 47.2327 7.929C46.863 7.65558 46.4008 7.47331 45.6614 7.47331C45.0143 7.47331 44.5522 7.56445 44.1824 7.83786C43.8127 8.11128 43.6279 8.47583 43.6279 8.84039C43.6279 9.20494 43.8127 9.56949 44.2749 9.84291C44.6446 10.1163 45.2916 10.3897 46.1235 10.572C47.6024 11.0277 48.7116 11.5745 49.3586 12.2125C50.0057 12.8505 50.3754 13.6707 50.3754 14.6733C50.3754 15.7669 50.0056 16.5872 49.1738 17.2251C48.3419 17.8631 47.2327 18.1365 45.8462 18.1365C44.8295 18.1365 43.9976 17.9542 43.1657 17.5897C42.3338 17.2251 41.7792 16.7694 41.3171 16.1315C40.9473 15.4935 40.67 14.8555 40.67 14.0353H43.2581C43.2581 15.4024 44.09 16.1315 45.7538 16.1315C46.4008 16.1315 46.863 16.0403 47.2327 15.7669C47.6024 15.6758 47.7873 15.3112 47.7873 14.8555ZM59.711 12.7593H54.7197V16.1315H60.5429V18.2277H52.1316V5.83282H60.5429V7.929H54.7197V10.8454H59.711V12.7593ZM64.7023 16.0403H70.2482V18.1365H62.1142V5.74167H64.7023V16.0403ZM74.5001 18.1365H71.8195V5.74167H74.4076V18.1365H74.5001ZM83.3735 14.8555C83.3735 14.3998 83.1886 14.0353 82.8189 13.7619C82.4492 13.4885 81.8946 13.215 80.9703 12.9416C80.046 12.6682 79.3989 12.3948 78.8443 12.1214C77.4579 11.3923 76.7184 10.2986 76.7184 9.02267C76.7184 8.3847 76.9033 7.74673 77.273 7.1999C77.6427 6.65306 78.1973 6.28851 78.9368 5.92395C79.6762 5.65054 80.4157 5.46826 81.34 5.46826C82.2643 5.46826 83.0038 5.65054 83.7432 5.92395C84.4827 6.28851 85.0373 6.65306 85.407 7.29103C85.7767 7.83786 85.9616 8.56697 85.9616 9.29608H83.3735C83.3735 8.74925 83.1886 8.29355 82.8189 7.929C82.4492 7.65558 81.987 7.47331 81.2476 7.47331C80.6005 7.47331 80.1384 7.56445 79.7687 7.83786C79.3989 8.11128 79.2141 8.47583 79.2141 8.84039C79.2141 9.20494 79.3989 9.56949 79.8611 9.84291C80.2308 10.1163 80.8778 10.3897 81.7097 10.572C83.1886 11.0277 84.2978 11.5745 84.9448 12.2125C85.5919 12.8505 85.9616 13.6707 85.9616 14.6733C85.9616 15.7669 85.5919 16.5872 84.76 17.2251C83.9281 17.8631 82.8189 18.1365 81.4324 18.1365C80.4157 18.1365 79.5838 17.9542 78.7519 17.5897C77.92 17.2251 77.3654 16.7694 76.9033 16.1315C76.5336 15.4935 76.2563 14.8555 76.2563 14.0353H78.8443C78.8443 15.4024 79.6762 16.1315 81.34 16.1315C81.987 16.1315 82.4492 16.0403 82.8189 15.7669C83.1886 15.6758 83.3735 15.3112 83.3735 14.8555ZM102.137 16.5872C101.675 17.134 101.028 17.5897 100.196 17.8631C99.3642 18.1365 98.4399 18.3188 97.3307 18.3188C96.2215 18.3188 95.2972 18.0454 94.4653 17.5897C93.6334 17.134 92.9864 16.4049 92.5242 15.5846C92.0621 14.6733 91.8772 13.6707 91.8772 12.3948V11.5746C91.8772 10.2986 92.0621 9.29608 92.5242 8.38469C92.9864 7.47331 93.541 6.7442 94.3729 6.28851C95.2048 5.83282 96.1291 5.5594 97.1458 5.5594C98.6247 5.5594 99.8263 5.92395 100.658 6.65306C101.49 7.38217 101.952 8.38469 102.137 9.75177H99.5491C99.4566 9.02266 99.1793 8.47583 98.8096 8.20242C98.4399 7.83786 97.8853 7.74673 97.1458 7.74673C96.2215 7.74673 95.5745 8.11128 95.1123 8.74925C94.6502 9.38722 94.3729 10.3897 94.3729 11.6657V12.4859C94.3729 13.7619 94.6502 14.7644 95.1123 15.4024C95.5745 16.0403 96.3139 16.4049 97.3307 16.4049C98.3474 16.4049 98.9945 16.2226 99.4566 15.7669V13.5796H97.0534V11.6657H102.045V16.5872H102.137ZM108.885 13.5796H106.851V18.1365H104.171V5.74167H108.885C110.364 5.74167 111.473 6.10623 112.305 6.7442C113.137 7.38217 113.506 8.29356 113.506 9.47836C113.506 10.2986 113.321 11.0277 112.952 11.5746C112.582 12.1214 112.027 12.5771 111.288 12.9416L113.968 18.0454V18.1365H111.195L108.885 13.5796ZM106.759 11.4834H108.885C109.532 11.4834 109.994 11.3011 110.364 11.0277C110.733 10.6632 110.918 10.2075 110.918 9.66063C110.918 9.1138 110.733 8.65811 110.456 8.29356C110.086 7.929 109.624 7.74673 108.885 7.74673H106.759V11.4834ZM125.8 12.2125C125.8 13.3973 125.615 14.491 125.153 15.4024C124.69 16.3138 124.043 17.0429 123.304 17.4986C122.472 17.9543 121.548 18.2277 120.531 18.2277C119.514 18.2277 118.59 17.9543 117.758 17.4986C116.926 17.0429 116.279 16.3138 115.817 15.4024C115.355 14.491 115.17 13.3973 115.17 12.2125V11.5746C115.17 10.3897 115.355 9.29608 115.817 8.38469C116.279 7.47331 116.926 6.7442 117.666 6.28851C118.498 5.83282 119.422 5.5594 120.439 5.5594C121.455 5.5594 122.38 5.83282 123.212 6.28851C124.043 6.7442 124.69 7.47331 125.06 8.38469C125.522 9.29608 125.707 10.3897 125.707 11.5746V12.2125H125.8ZM123.212 11.6657C123.212 10.3897 122.934 9.38722 122.472 8.65811C122.01 8.02014 121.363 7.65559 120.439 7.65559C119.607 7.65559 118.867 8.02014 118.405 8.65811C117.943 9.29608 117.666 10.2986 117.666 11.5746V12.2125C117.666 13.4885 117.943 14.491 118.405 15.1289C118.867 15.8581 119.514 16.2226 120.439 16.2226C121.271 16.2226 122.01 15.8581 122.472 15.2201C122.934 14.5821 123.212 13.5796 123.212 12.3036V11.6657ZM137.261 5.74167V13.9441C137.261 15.3112 136.799 16.4049 135.967 17.134C135.135 17.9542 133.934 18.3188 132.455 18.3188C130.976 18.3188 129.774 17.9542 128.942 17.134C128.11 16.4049 127.648 15.3112 127.648 13.9441V5.65054H130.236V13.853C130.236 14.6733 130.421 15.2201 130.791 15.6758C131.161 16.0403 131.715 16.2226 132.455 16.2226C133.934 16.2226 134.673 15.4935 134.673 13.9441V5.65054H137.261V5.74167ZM141.975 13.7619V18.1365H139.387V5.74167H144.286C145.21 5.74167 146.042 5.92396 146.782 6.28851C147.521 6.65306 148.076 7.10876 148.445 7.74673C148.815 8.3847 149 9.11381 149 9.93405C149 11.1189 148.538 12.1214 147.706 12.8505C146.874 13.5796 145.672 13.9441 144.194 13.9441H141.975V13.7619ZM141.975 11.6657H144.286C144.933 11.6657 145.488 11.4834 145.857 11.21C146.227 10.9366 146.412 10.4809 146.412 9.84291C146.412 9.20494 146.227 8.74925 145.857 8.38469C145.488 8.02014 145.025 7.83786 144.378 7.83786H141.975V11.6657Z" fill="black"/>
<path d="M40.8541 26.2479V22.6935H41.8709C42.1482 22.6935 42.4255 22.7846 42.7028 22.8758C42.9801 23.0581 43.1649 23.2403 43.2573 23.4226C43.3498 23.696 43.4422 23.9694 43.4422 24.334V24.6074C43.4422 24.972 43.3498 25.2454 43.2573 25.5188C43.1649 25.7922 42.9801 25.9745 42.7028 26.0656C42.4255 26.1568 42.1482 26.2479 41.8709 26.2479H40.8541ZM41.3163 23.0581V25.8834H41.7784C42.1482 25.8834 42.4255 25.7922 42.6103 25.5188C42.7952 25.3365 42.8876 24.972 42.8876 24.5163V24.334C42.8876 23.9694 42.7952 23.6049 42.6103 23.4226C42.4255 23.2403 42.1482 23.0581 41.7784 23.0581H41.3163ZM49.4503 24.7897H48.6184V26.2479H48.1562V22.6935H49.3578C49.7276 22.6935 50.0973 22.7846 50.2822 22.9669C50.467 23.1492 50.6519 23.4226 50.6519 23.7872C50.6519 23.9694 50.5595 24.2429 50.467 24.334C50.3746 24.5163 50.1897 24.6074 49.9124 24.6986L50.7443 26.2479H50.1897L49.4503 24.7897ZM48.6184 24.4251H49.3578C49.6351 24.4251 49.82 24.334 49.9124 24.2429C50.0973 24.1517 50.0973 23.9694 50.0973 23.7872C50.0973 23.6049 50.0049 23.4226 49.9124 23.2403C49.82 23.1492 49.5427 23.0581 49.3578 23.0581H48.6184V24.4251ZM57.307 24.6074H55.7356V25.8834H57.5843V26.2479H55.2735V22.6935H57.5843V23.0581H55.8281V24.2429H57.3994V24.6074H57.307ZM64.1469 25.2454H62.5756L62.2059 26.1568H61.7437L63.1302 22.6024H63.5923L64.9788 26.1568H64.4242L64.1469 25.2454ZM62.7604 24.8808H63.9621L63.315 23.2403L62.7604 24.8808ZM70.0625 22.6024L71.2642 25.5188L72.4658 22.6024H73.1128V26.1568H72.6506V24.7897V23.3315L71.449 26.2479H71.0793L69.8777 23.3315L69.9701 24.7897V26.1568H69.508V22.6024H70.0625ZM78.936 24.6074C78.5663 24.5163 78.1965 24.334 78.0117 24.1517C77.8268 23.9694 77.7344 23.7872 77.7344 23.5137C77.7344 23.2403 77.8268 22.9669 78.1041 22.7846C78.289 22.6024 78.6587 22.5112 79.0284 22.5112C79.3057 22.5112 79.4906 22.6024 79.6754 22.6935C79.8603 22.7846 80.0452 22.8758 80.1376 23.0581C80.23 23.2403 80.3225 23.4226 80.3225 23.6049H79.8603C79.8603 23.4226 79.7679 23.2403 79.6754 23.0581C79.4906 22.9669 79.3057 22.8758 79.1209 22.8758C78.8436 22.8758 78.6587 22.9669 78.5663 23.0581C78.4738 23.1492 78.3814 23.3315 78.3814 23.5137C78.3814 23.696 78.4738 23.7872 78.5663 23.8783C78.6587 23.9694 78.936 24.0606 79.2133 24.1517C79.4906 24.2429 79.7679 24.334 79.9527 24.4251C80.1376 24.5163 80.23 24.6074 80.3225 24.7897C80.4149 24.8808 80.4149 25.0631 80.4149 25.2454C80.4149 25.5188 80.3225 25.7922 80.0452 25.9745C79.8603 26.1568 79.4906 26.2479 79.1209 26.2479C78.8436 26.2479 78.6587 26.1568 78.3814 26.0656C78.1965 25.9745 78.0117 25.8834 77.9192 25.7011C77.8268 25.5188 77.7344 25.3365 77.7344 25.1542H78.1965C78.1965 25.3365 78.289 25.5188 78.4738 25.7011C78.6587 25.7922 78.8436 25.8834 79.1209 25.8834C79.3982 25.8834 79.583 25.7922 79.6754 25.7011C79.7679 25.6099 79.8603 25.4277 79.8603 25.2454C79.8603 25.0631 79.7679 24.972 79.6754 24.8808C79.4906 24.7897 79.2133 24.6985 78.936 24.6074ZM92.7083 25.0631C92.7083 25.4277 92.5235 25.7011 92.2462 25.9745C91.9689 26.1568 91.6916 26.2479 91.3218 26.2479C90.8597 26.2479 90.5824 26.0656 90.3051 25.7922C90.0278 25.5188 89.9354 25.0631 89.9354 24.6074V24.2429C89.9354 23.8783 90.0278 23.6049 90.1202 23.3315C90.2127 23.0581 90.3975 22.8758 90.6748 22.7846C90.8597 22.6935 91.137 22.6024 91.4143 22.6024C91.784 22.6024 92.1537 22.6935 92.3386 22.8758C92.6159 23.0581 92.7083 23.4226 92.7083 23.7872H92.2462C92.2462 23.5137 92.1537 23.3315 91.9689 23.1492C91.784 23.0581 91.5991 22.9669 91.4143 22.9669C91.137 22.9669 90.8597 23.0581 90.6748 23.3315C90.49 23.5137 90.3975 23.8783 90.3975 24.2429V24.6074C90.3975 24.972 90.49 25.3365 90.6748 25.5188C90.8597 25.7922 91.0446 25.8834 91.3218 25.8834C91.5991 25.8834 91.784 25.7922 91.9689 25.7011C92.1537 25.6099 92.2462 25.3365 92.2462 25.0631H92.7083ZM100.103 24.5163C100.103 24.8808 100.01 25.1542 99.918 25.4277C99.8256 25.7011 99.6407 25.8834 99.4558 26.0656C99.271 26.2479 98.9937 26.2479 98.7164 26.2479C98.4391 26.2479 98.1618 26.1568 97.9769 26.0656C97.7921 25.8834 97.6072 25.7011 97.4223 25.5188C97.3299 25.2454 97.2375 24.972 97.2375 24.6074V24.334C97.2375 23.9694 97.3299 23.696 97.4223 23.4226C97.5148 23.1492 97.6996 22.9669 97.9769 22.7846C98.1618 22.6024 98.4391 22.6024 98.7164 22.6024C98.9937 22.6024 99.271 22.6935 99.4558 22.7846C99.6407 22.9669 99.8256 23.1492 100.01 23.4226C100.103 23.696 100.195 23.9694 100.195 24.334V24.5163H100.103ZM99.6407 24.334C99.6407 23.8783 99.5483 23.6049 99.3634 23.3315C99.1785 23.1492 98.9937 22.9669 98.624 22.9669C98.3467 22.9669 98.0694 23.0581 97.8845 23.3315C97.6996 23.5137 97.6072 23.8783 97.6072 24.2429V24.5163C97.6072 24.8808 97.6996 25.2454 97.8845 25.5188C98.0694 25.7922 98.2542 25.8834 98.624 25.8834C98.9012 25.8834 99.1785 25.7922 99.3634 25.5188C99.5483 25.3365 99.6407 24.972 99.6407 24.6074V24.334ZM105.464 22.6024L106.666 25.5188L107.867 22.6024H108.514V26.1568H108.052V24.7897V23.3315L106.85 26.2479H106.481L105.279 23.3315L105.371 24.7897V26.1568H104.909V22.6024H105.464ZM115.262 24.6074H113.69V25.8834H115.539V26.2479H113.228V22.6935H115.539V23.0581H113.783V24.2429H115.354V24.6074H115.262ZM127.648 23.0581H126.446V26.2479H125.984V23.0581H124.782V22.6935H127.555V23.0581H127.648ZM133.471 24.7897H132.639V26.2479H132.177V22.6935H133.378C133.748 22.6935 134.118 22.7846 134.303 22.9669C134.487 23.1492 134.672 23.4226 134.672 23.7872C134.672 23.9694 134.58 24.2429 134.487 24.334C134.395 24.5163 134.21 24.6074 134.025 24.6986L134.857 26.2479H134.303L133.471 24.7897ZM132.639 24.4251H133.378C133.656 24.4251 133.84 24.334 133.933 24.2429C134.118 24.1517 134.118 23.9694 134.118 23.7872C134.118 23.6049 134.025 23.4226 133.933 23.2403C133.84 23.1492 133.563 23.0581 133.378 23.0581H132.639V24.4251ZM141.79 22.6024V25.0631C141.79 25.4277 141.697 25.7011 141.512 25.8834C141.327 26.0656 141.05 26.2479 140.68 26.2479H140.588C140.218 26.2479 139.848 26.1568 139.664 25.9745C139.386 25.7922 139.294 25.5188 139.294 25.0631V22.6024H139.756V25.0631C139.756 25.3365 139.849 25.5188 139.941 25.7011C140.126 25.8834 140.311 25.8834 140.588 25.8834C140.865 25.8834 141.05 25.7922 141.235 25.7011C141.42 25.5188 141.42 25.3365 141.42 25.0631V22.6024H141.79ZM148.63 24.6074H147.058V25.8834H148.907V26.2479H146.596V22.6935H148.907V23.0581H147.151V24.2429H148.722V24.6074H148.63Z" fill="black"/>
</svg>
